<svg width="15" height="15" viewBox="0 0 15 15" fill="none" xmlns="http://www.w3.org/2000/svg">
<path fill-rule="evenodd" clip-rule="evenodd" d="M7.71924 14.2565C8.63849 14.2565 9.54874 14.0754 10.398 13.7236C11.2473 13.3718 12.019 12.8562 12.669 12.2062C13.319 11.5562 13.8346 10.7845 14.1864 9.93525C14.5382 9.08597 14.7192 8.17572 14.7192 7.25647C14.7192 6.33722 14.5382 5.42696 14.1864 4.57769C13.8346 3.72841 13.319 2.95673 12.669 2.30672C12.019 1.65671 11.2473 1.1411 10.398 0.789313C9.54874 0.43753 8.63849 0.25647 7.71924 0.25647C5.86272 0.25647 4.08225 0.993968 2.76949 2.30672C1.45674 3.61948 0.719238 5.39995 0.719238 7.25647C0.719238 9.11299 1.45674 10.8935 2.76949 12.2062C4.08225 13.519 5.86272 14.2565 7.71924 14.2565ZM7.53879 10.0876L11.4277 5.42091L10.233 4.42536L6.88857 8.43791L5.15802 6.70658L4.05824 7.80636L6.39157 10.1397L6.99357 10.7417L7.53879 10.0876Z" fill="black"/>
</svg>
